<?xml version="1.0" encoding="utf-8"?>
<!-- Generator: Adobe Illustrator 24.0.0, SVG Export Plug-In . SVG Version: 6.00 Build 0)  -->
<svg version="1.1" id="Camada_1" xmlns="http://www.w3.org/2000/svg" xmlns:xlink="http://www.w3.org/1999/xlink" x="0px" y="0px"
	 viewBox="0 0 128 128" style="enable-background:new 0 0 128 128;" xml:space="preserve">
<path d="M96.89,10.72H31.11c-11.42,0-20.69,9.26-20.69,20.69v65.77c0,11.42,9.26,20.69,20.69,20.69h65.77
	c11.42,0,20.69-9.26,20.69-20.69V31.41C117.57,19.98,108.31,10.72,96.89,10.72z M89.9,77.58c1.08,1.08,1.08,2.84,0,3.92l-8.7,8.7
	c-1.08,1.08-2.84,1.08-3.92,0L63.85,76.76L50.72,89.9c-1.08,1.08-2.84,1.08-3.92,0l-8.7-8.7c-1.08-1.08-1.08-2.84,0-3.92
	l13.14-13.14L38.1,51.01c-1.08-1.08-1.08-2.84,0-3.92l8.7-8.7c1.08-1.08,2.84-1.08,3.92,0l13.14,13.14L77.28,38.1
	c1.08-1.08,2.84-1.08,3.92,0l8.7,8.7c1.08,1.08,1.08,2.84,0,3.92L76.47,64.15L89.9,77.58z"/>
</svg>
