<?xml version="1.0" encoding="utf-8"?>
<!-- Generator: Adobe Illustrator 24.0.0, SVG Export Plug-In . SVG Version: 6.00 Build 0)  -->
<svg version="1.1" id="Camada_1" xmlns="http://www.w3.org/2000/svg" xmlns:xlink="http://www.w3.org/1999/xlink" x="0px" y="0px"
	 viewBox="0 0 128 128" style="enable-background:new 0 0 128 128;" xml:space="preserve">
<path d="M64,8.04C33.1,8.04,8.04,33.1,8.04,64S33.1,119.96,64,119.96S119.96,94.9,119.96,64S94.9,8.04,64,8.04z M69.91,90.52
	c0,1.01-0.82,1.84-1.84,1.84h-8.15c-1.01,0-1.84-0.82-1.84-1.84V53.81c0-1.01,0.82-1.84,1.84-1.84h8.15c1.01,0,1.84,0.82,1.84,1.84
	V90.52z M70.9,44.08c0,1.64-1.33,2.96-2.96,2.96h-7.87c-1.64,0-2.96-1.33-2.96-2.96v-7.87c0-1.64,1.33-2.96,2.96-2.96h7.87
	c1.64,0,2.96,1.33,2.96,2.96V44.08z"/>
</svg>
