<?xml version="1.0" encoding="utf-8"?>
<!-- Generator: Adobe Illustrator 24.0.0, SVG Export Plug-In . SVG Version: 6.00 Build 0)  -->
<svg version="1.1" id="Camada_1" xmlns="http://www.w3.org/2000/svg" xmlns:xlink="http://www.w3.org/1999/xlink" x="0px" y="0px"
	 viewBox="0 0 128 128" style="enable-background:new 0 0 128 128;" xml:space="preserve">
<path d="M120.97,88.57L78.53,21.6c-6.76-10.67-22.34-10.66-29.09,0.03L7.17,88.6c-7.23,11.46,1,26.39,14.55,26.39h84.71
	C120,114.99,128.23,100.03,120.97,88.57z M58.09,40.97c0-1.01,0.82-1.84,1.84-1.84h8.15c1.01,0,1.84,0.82,1.84,1.84v36.72
	c0,1.01-0.82,1.84-1.84,1.84h-8.15c-1.01,0-1.84-0.82-1.84-1.84V40.97z M70.9,95.28c0,1.64-1.33,2.96-2.96,2.96h-7.87
	c-1.64,0-2.96-1.33-2.96-2.96v-7.87c0-1.64,1.33-2.96,2.96-2.96h7.87c1.64,0,2.96,1.33,2.96,2.96V95.28z"/>
</svg>
