<svg id="Camada_1" data-name="Camada 1" xmlns="http://www.w3.org/2000/svg" viewBox="0 0 118.89 112.71"><title>file</title><path d="M13.23,105.53a25.35,25.35,0,0,1,0-35.85L67,15.91A33.8,33.8,0,0,1,114.8,63.7L61,117.48a4.23,4.23,0,1,1-6-6l53.78-53.77A25.35,25.35,0,0,0,73,21.88L19.2,75.65a16.9,16.9,0,0,0,23.9,23.9l47.8-47.8A8.45,8.45,0,1,0,79,39.81L34.14,84.62a4.22,4.22,0,0,1-6-6L73,33.83a16.9,16.9,0,1,1,23.9,23.9l-47.8,47.8A25.35,25.35,0,0,1,13.23,105.53Z" transform="translate(-5.81 -6.01)"/></svg>