<svg id="Camada_1" data-name="Camada 1" xmlns="http://www.w3.org/2000/svg" viewBox="0 0 120.25 120.25"><title>preset</title><path d="M118.48,58h-21a17.15,17.15,0,0,0-32.36,0H9.68a5.73,5.73,0,1,0,0,11.45h55.4a17.16,17.16,0,0,0,32.36,0h21a5.73,5.73,0,1,0,0-11.45Z" transform="translate(-3.95 -3.59)"/><path d="M9.68,26.5H33.59a17.15,17.15,0,0,0,32.35,0h52.54a5.73,5.73,0,1,0,0-11.45H65.94a17.14,17.14,0,0,0-32.35,0H9.68a5.73,5.73,0,1,0,0,11.45Z" transform="translate(-3.95 -3.59)"/><path d="M118.48,100.94H65.94a17.15,17.15,0,0,0-32.35,0H9.68a5.73,5.73,0,1,0,0,11.46H33.59a17.15,17.15,0,0,0,32.35,0h52.54a5.73,5.73,0,0,0,0-11.46Z" transform="translate(-3.95 -3.59)"/></svg>