<svg xmlns="http://www.w3.org/2000/svg" viewBox="0 0 57 68"><defs><style>.cls-1{fill:#fff;}</style></defs><title>print</title><g id="Camada_2" data-name="Camada 2"><g id="Camada_1-2" data-name="Camada 1"><path class="cls-1" d="M50.91,18H42v.41A5.59,5.59,0,0,1,36.41,24H21.59A5.59,5.59,0,0,1,16,18.41V18H6.09A6.09,6.09,0,0,0,0,24.09V43.91A6.09,6.09,0,0,0,6.09,50H14V48.89a5.58,5.58,0,0,1,5.59-5.58H38.41A5.58,5.58,0,0,1,44,48.89V50h6.91A6.09,6.09,0,0,0,57,43.91V24.09A6.09,6.09,0,0,0,50.91,18Z"/><path class="cls-1" d="M36.41,46H21.59A5.59,5.59,0,0,0,16,51.59V62.41A5.59,5.59,0,0,0,21.59,68H36.41A5.59,5.59,0,0,0,42,62.41V51.59A5.59,5.59,0,0,0,36.41,46ZM36,64H22a2.5,2.5,0,0,1,0-5H36a2.5,2.5,0,0,1,0,5Zm0-9H22a2.5,2.5,0,0,1,0-5H36a2.5,2.5,0,0,1,0,5Z"/><rect class="cls-1" x="18" width="22" height="22" rx="5.22"/></g></g></svg>