<svg id="Camada_1" data-name="Camada 1" xmlns="http://www.w3.org/2000/svg" viewBox="0 0 127.42 127.78"><title>send</title><path d="M64.29.22A63.89,63.89,0,1,0,128,64.11,63.79,63.79,0,0,0,64.29.22Zm42.36,70.41L39.78,101.39a7.53,7.53,0,0,1-7.27-.51,6.91,6.91,0,0,1-1.6-1.41,7.25,7.25,0,0,1-1.07-7.19c2.33-6.14,8.66-22.86,9-23.79,0,0,45.28-4.73,45.3-4.77S38.89,59.06,38.88,59c-.31-.81-6.57-17.35-9-23.67a7.35,7.35,0,0,1,4.83-9.76,7.47,7.47,0,0,1,5,.47l66.87,30.76A7.6,7.6,0,0,1,106.65,70.63Z" transform="translate(-0.58 -0.22)"/></svg>