<?xml version="1.0" encoding="utf-8"?>
<!-- Generator: Adobe Illustrator 24.0.0, SVG Export Plug-In . SVG Version: 6.00 Build 0)  -->
<svg version="1.1" id="Camada_1" xmlns="http://www.w3.org/2000/svg" xmlns:xlink="http://www.w3.org/1999/xlink" x="0px" y="0px"
	 viewBox="0 0 128 128" style="enable-background:new 0 0 128 128;" xml:space="preserve">
<path d="M115.26,53.93l-7.21-1.34c-4.47-1.09-7.2-5.59-6.11-10.06c0.2-0.82,0.52-1.6,0.95-2.32l4.14-5.43
	c1.63-2.29,1.35-5.43-0.67-7.39l-6.01-5.96c-1.95-1.99-5.06-2.27-7.34-0.67l-5.79,4.14c-2.27,1.33-5.03,1.54-7.48,0.58
	c-2.27-1.17-3.92-3.27-4.54-5.74l-1.34-7.21c-0.58-2.57-2.84-4.41-5.47-4.45h-8.59c-2.65,0.02-4.94,1.86-5.52,4.45l-1.34,7.21
	c-1.14,4.45-5.67,7.14-10.12,6c-0.72-0.19-1.42-0.47-2.07-0.84l-5.61-4.14c-2.28-1.61-5.39-1.32-7.34,0.67l-6.01,5.96
	c-2.01,1.96-2.3,5.1-0.67,7.39l4.14,5.79c2.2,4.04,0.7,9.09-3.34,11.29c-0.58,0.31-1.19,0.56-1.83,0.73l-7.21,1.34
	c-2.57,0.58-4.41,2.84-4.45,5.47v8.59c0.02,2.65,1.86,4.94,4.45,5.52l7.21,1.34c4.47,1.09,7.2,5.59,6.11,10.06
	c-0.2,0.81-0.52,1.6-0.95,2.32l-4.14,5.43c-1.63,2.29-1.35,5.43,0.67,7.39l6.01,5.96c1.95,1.99,5.06,2.27,7.34,0.67l5.79-4.14
	c4.04-2.2,9.09-0.7,11.29,3.33c0.31,0.58,0.56,1.19,0.73,1.83l1.34,7.21c0.58,2.57,2.84,4.41,5.47,4.45h8.59
	c2.63-0.04,4.9-1.88,5.47-4.45l1.38-7.21c1.09-4.47,5.59-7.2,10.06-6.11c0.81,0.2,1.6,0.52,2.32,0.95l5.79,4.14
	c2.21,1.41,5.09,1.13,6.99-0.67l6.01-5.96c2.01-1.96,2.3-5.1,0.67-7.39l-4.14-5.79c-2.2-4.04-0.7-9.09,3.33-11.29
	c0.58-0.31,1.19-0.56,1.83-0.73l7.21-1.34c2.57-0.58,4.41-2.84,4.45-5.47v-8.59C119.69,56.8,117.84,54.51,115.26,53.93z
	 M84.11,63.72c0,11.06-8.97,20.03-20.03,20.03s-20.03-8.97-20.03-20.03S53.02,43.7,64.08,43.7S84.11,52.66,84.11,63.72z"/>
</svg>
