<?xml version="1.0" encoding="utf-8"?>
<!-- Generator: Adobe Illustrator 24.0.0, SVG Export Plug-In . SVG Version: 6.00 Build 0)  -->
<svg version="1.1" id="Camada_1" xmlns="http://www.w3.org/2000/svg" xmlns:xlink="http://www.w3.org/1999/xlink" x="0px" y="0px"
	 viewBox="0 0 87.5 116.4" style="enable-background:new 0 0 87.5 116.4;" xml:space="preserve">
<style type="text/css">
	.st0{fill:none;stroke:#000000;stroke-width:7;stroke-linejoin:round;}
	.st1{fill:none;stroke:#000000;stroke-width:7;stroke-linecap:round;stroke-linejoin:round;}
</style>
<title>text</title>
<path class="st0" d="M20.9,4.5h40.8L83,24.6V107c0,2.7-2.2,4.9-4.9,4.9h0H9.4c-2.7,0-4.9-2.2-4.9-4.9l0,0V9.4c0-2.7,2.2-4.9,4.9-4.9
	H20.9z"/>
<line class="st1" x1="78.8" y1="27.5" x2="59.7" y2="27.5"/>
<line class="st1" x1="59.7" y1="27.5" x2="59.7" y2="10"/>
<line class="st1" x1="19.2" y1="44.4" x2="68.4" y2="44.4"/>
<line class="st1" x1="41" y1="62.5" x2="62.7" y2="62.5"/>
<line class="st1" x1="19.2" y1="80.2" x2="68.4" y2="80.2"/>
<line class="st1" x1="19.2" y1="96.4" x2="41.5" y2="96.4"/>
<line class="st1" x1="57.8" y1="96.4" x2="65.4" y2="96.4"/>
<line class="st1" x1="19.2" y1="62.7" x2="26" y2="62.7"/>
</svg>
