<svg xmlns="http://www.w3.org/2000/svg" viewBox="0 0 56.65 55.98"><defs><style>.cls-1{fill:#fff;}</style></defs><title>transfer</title><g id="Camada_2" data-name="Camada 2"><g id="Camada_1-2" data-name="Camada 1"><path class="cls-1" d="M43.57,40.55a3.85,3.85,0,0,1-3.86,3.85H13.11l5,5a3.85,3.85,0,0,1,0,5.45l0,0a3.85,3.85,0,0,1-5.45,0l0,0L1.1,43.28A3.68,3.68,0,0,1,.29,42a3.79,3.79,0,0,1,0-2.92,3.82,3.82,0,0,1,.81-1.28L12.65,26.26a3.87,3.87,0,1,1,5.47,5.47l-5,5h26.6A3.85,3.85,0,0,1,43.57,40.55ZM56.36,16.89a4,4,0,0,0-.81-4.2L44,1.13A3.87,3.87,0,0,0,38.52,6.6l5,5H14.68a3.85,3.85,0,1,0,0,7.7H43.53l-5,5a3.85,3.85,0,0,0,0,5.45l0,0a3.85,3.85,0,0,0,5.45,0l0,0L55.55,18.16A4,4,0,0,0,56.36,16.89Z"/></g></g></svg>