<?xml version="1.0" encoding="utf-8"?>
<!-- Generator: Adobe Illustrator 24.0.0, SVG Export Plug-In . SVG Version: 6.00 Build 0)  -->
<svg version="1.1" id="Camada_1" xmlns="http://www.w3.org/2000/svg" xmlns:xlink="http://www.w3.org/1999/xlink" x="0px" y="0px"
	 viewBox="0 0 128 128" style="enable-background:new 0 0 128 128;" xml:space="preserve">
<g>
	<path d="M96.8,84.1H73.1c-2.2,0-4-1.8-4-4v0c0-2.2,1.8-4,4-4h23.7c2.2,0,4,1.8,4,4v0C100.8,82.4,99,84.1,96.8,84.1z"/>
	<path d="M96.9,97.7H83.5c-2.1,0-3.9-1.8-3.9-4v0c0-2.2,1.7-4,3.9-4h13.5c2.1,0,3.9,1.8,3.9,4v0C100.8,95.9,99.1,97.7,96.9,97.7z"/>
	<path d="M114,8.7H14c-3.7,0-6.7,2.5-6.7,5.5v99.7c0,3,3,5.5,6.7,5.5h100c3.7,0,6.7-2.5,6.7-5.5V14.2C120.7,11,117.7,8.7,114,8.7z
		 M42.3,68.1c-12.6,0-22.9-10.2-22.9-22.9V27.1c0-2.6,2.1-4.8,4.8-4.8h18.1c12.6,0,22.9,10.2,22.9,22.9v0
		C65.1,57.9,54.9,68.1,42.3,68.1L42.3,68.1z M107.9,86.9c0,12.7-10.3,22.9-22.9,22.9h0C72.3,109.9,62,99.6,62,86.9v0
		C62,74.3,72.3,64,85,64h18.2c2.6,0,4.8,2.1,4.8,4.8V86.9z"/>
	<path d="M48.6,47.9h2.2c2.1,0,3.9,1.7,3.9,3.9v0c0,2.1-1.7,3.9-3.9,3.9h-2.2c-2.1,0-3.9-1.7-3.9-3.9v0
		C44.8,49.7,46.5,47.9,48.6,47.9z"/>
	<path d="M30.8,34.8h23c2.1,0,3.9,1.7,3.9,3.9v0c0,2.1-1.7,3.9-3.9,3.9h-23c-2.1,0-3.9-1.7-3.9-3.9v0C26.9,36.5,28.6,34.8,30.8,34.8
		z"/>
	<path d="M30.8,47.9h6.4c2.1,0,3.9,1.7,3.9,3.9v0c0,2.1-1.7,3.9-3.9,3.9h-6.4c-2.1,0-3.9-1.7-3.9-3.9v0
		C26.9,49.7,28.6,47.9,30.8,47.9z"/>
</g>
</svg>
